# xmcd
#
# Track frame offsets:
#	150
#	18805
#	36592
#	54405
#
# Disc length: 949 seconds
#
# Revision: 1
# Processed by: cddbd v1.5.2PL0 Copyright (c) Steve Scherf et al.
# Submitted via: EasyCDDAExtractor 10.0.3.1
#
DISCID=2a03b304
DTITLE=WORLDS APART - SINGLE
DYEAR=1900
DGENRE=
TTITLE0=Language Of Love - RAGGA TIP MIX
TTITLE1=Language Of Love - RADIO EDIT
TTITLE2=Language Of Love - ALBUM VERSION
TTITLE3=Tell Me How
EXTD=Posted by Jerry, Poland, 2003
EXTT0=
EXTT1=
EXTT2=
EXTT3=
PLAYORDER=
